<svg width="28" height="25" viewBox="0 0 28 25" fill="none" xmlns="http://www.w3.org/2000/svg">
<path d="M25.0292 3.06476C23.6452 1.54627 21.7462 0.709961 19.6815 0.709961C18.1382 0.709961 16.7249 1.20354 15.4806 2.17686C14.8528 2.66816 14.2839 3.26924 13.7823 3.97081C13.2809 3.26945 12.7118 2.66816 12.0838 2.17686C10.8397 1.20354 9.42636 0.709961 7.88307 0.709961C5.81841 0.709961 3.91917 1.54627 2.53518 3.06476C1.16772 4.5655 0.414429 6.61573 0.414429 8.83805C0.414429 11.1254 1.25706 13.2191 3.06614 15.4274C4.6845 17.4028 7.01045 19.408 9.70398 21.73C10.6237 22.523 11.6662 23.4218 12.7487 24.3793C13.0347 24.6326 13.4017 24.7721 13.7823 24.7721C14.1627 24.7721 14.5299 24.6326 14.8155 24.3797C15.898 23.422 16.9411 22.5228 17.8612 21.7294C20.5544 19.4078 22.8803 17.4028 24.4987 15.4272C26.3078 13.2191 27.1502 11.1254 27.1502 8.83785C27.1502 6.61573 26.3969 4.5655 25.0292 3.06476Z" fill="#FEB302"/>
</svg>
